<?xml version="1.0" standalone="no"?>
<!DOCTYPE svg PUBLIC "-//W3C//DTD SVG 20010904//EN"
 "http://www.w3.org/TR/2001/REC-SVG-20010904/DTD/svg10.dtd">
<svg version="1.0" xmlns="http://www.w3.org/2000/svg"
 width="900.000000pt" height="520.000000pt" viewBox="0 0 900.000000 520.000000"
 preserveAspectRatio="xMidYMid meet">

<g transform="translate(0.000000,520.000000) scale(0.100000,-0.100000)"
fill="#000000" stroke="none">
<path d="M2522 4541 c-63 -22 -123 -76 -152 -138 -20 -43 -20 -54 -21 -1458 0
-1248 2 -1418 16 -1451 8 -20 15 -38 15 -40 0 -2 -17 -12 -37 -23 -51 -26 -99
-78 -237 -256 -136 -175 -171 -238 -162 -290 9 -49 57 -99 124 -132 l57 -28
2355 -3 c2589 -2 2409 -7 2499 58 42 31 80 95 81 135 0 42 -55 126 -193 295
-126 154 -200 229 -237 242 -7 2 -6 15 5 40 13 33 15 198 15 1450 l0 1413 -24
50 c-12 28 -41 67 -64 87 -81 73 71 68 -2066 68 -1839 -1 -1923 -1 -1974 -19z
m3886 -233 c17 -17 17 -2719 0 -2736 -17 -17 -3799 -17 -3816 0 -17 17 -17
2719 0 2736 17 17 3799 17 3816 0z m86 -3011 c23 -23 55 -68 71 -99 52 -101
109 -93 -664 -96 l-671 -2 2 -68 3 -67 -714 -3 c-541 -2 -717 1 -728 10 -11 9
-13 25 -8 70 l7 58 -679 0 c-515 0 -682 3 -691 12 -7 7 -12 22 -12 34 0 30 91
167 121 181 18 9 516 12 1973 12 l1949 1 41 -43z"/>
<path d="M4787 3740 c-41 -13 -52 -24 -82 -88 -313 -659 -645 -1378 -645
-1397 0 -96 120 -151 190 -87 22 20 117 214 356 722 179 382 328 711 330 730
10 78 -71 144 -149 120z"/>
<path d="M3655 3520 c-11 -4 -149 -114 -306 -243 -297 -244 -319 -268 -319
-339 0 -64 36 -101 333 -343 300 -245 317 -255 392 -241 74 14 133 101 120
178 -9 54 -35 80 -249 253 -102 83 -185 152 -185 155 -1 3 89 78 199 168 118
96 207 176 217 195 54 103 -21 228 -136 226 -25 0 -55 -4 -66 -9z"/>
<path d="M5214 3520 c-35 -14 -82 -76 -89 -118 -4 -26 -1 -52 11 -81 17 -43
43 -67 337 -304 48 -39 87 -73 86 -76 0 -3 -84 -73 -185 -156 -102 -82 -198
-164 -214 -182 -96 -108 8 -276 154 -249 35 7 49 18 473 364 155 127 183 161
183 228 0 64 -23 88 -316 329 -159 130 -299 241 -312 246 -28 11 -100 11 -128
-1z"/>
</g>
</svg>
